<?xml version="1.0" encoding="UTF-8"?>
<svg version="1.1" xmlns="http://www.w3.org/2000/svg" width="512" height="512">
<path d="M0 0 C0.90054108 -0.00701431 1.80108215 -0.01402863 2.72891235 -0.02125549 C5.61750351 -0.03865402 8.50588962 -0.0451074 11.39453125 -0.046875 C12.38190277 -0.04754974 13.36927429 -0.04822449 14.38656616 -0.04891968 C28.87551745 -0.03317418 42.9506323 0.41012436 57.20703125 3.203125 C58.12000977 3.36941406 59.03298828 3.53570312 59.97363281 3.70703125 C96.04925523 10.34445411 130.33055298 24.95692361 160.20703125 46.203125 C160.84560059 46.65236328 161.48416992 47.10160156 162.14208984 47.56445312 C173.01180884 55.26238758 182.68903876 63.90472024 192.20703125 73.203125 C193.32549867 74.28127299 194.4439871 75.35939919 195.5625 76.4375 C201.94360049 82.64493135 207.72202768 89.18583396 213.20703125 96.203125 C213.97273438 97.14027344 214.7384375 98.07742187 215.52734375 99.04296875 C241.36197971 131.3154963 257.83372305 170.7213767 265.20703125 211.203125 C265.37074219 212.03875977 265.53445313 212.87439453 265.703125 213.73535156 C270.99583045 241.45644312 270.60643869 273.54121537 265.20703125 301.203125 C265.04605957 302.10015137 264.88508789 302.99717773 264.71923828 303.92138672 C257.58459713 343.35038817 240.82942219 380.62616487 216.20703125 412.203125 C215.53414063 413.08742188 214.86125 413.97171875 214.16796875 414.8828125 C202.06440775 430.47299601 187.76534628 445.08516977 172.20703125 457.203125 C171.27117187 457.96753906 170.3353125 458.73195313 169.37109375 459.51953125 C137.10282914 485.35902849 97.68737776 501.83007212 57.20703125 509.203125 C56.37139648 509.36683594 55.53576172 509.53054688 54.67480469 509.69921875 C27.06754794 514.97019006 -5.25856565 514.7676246 -32.79296875 509.203125 C-33.71609863 509.02088379 -34.63922852 508.83864258 -35.59033203 508.65087891 C-47.55028941 506.23548006 -59.26129085 503.18649524 -70.79296875 499.203125 C-71.54143066 498.94805176 -72.28989258 498.69297852 -73.06103516 498.43017578 C-84.45061927 494.51507937 -95.16690912 489.85929385 -105.79296875 484.203125 C-106.99335756 483.57396679 -108.19387537 482.94505465 -109.39453125 482.31640625 C-114.12907615 479.80764166 -118.68236535 477.31906798 -123.04296875 474.203125 C-127.33491611 471.53816291 -131.00924683 472.21171846 -135.79296875 473.203125 C-140.84175914 474.59396625 -145.80378107 476.22169548 -150.7734375 477.8671875 C-152.23219228 478.34301683 -153.6912078 478.81804749 -155.15046692 479.29232788 C-158.98644291 480.54130884 -162.81898234 481.80051614 -166.65081787 483.06213379 C-170.47431961 484.31930445 -174.30068155 485.56769637 -178.12695312 486.81640625 C-182.57778594 488.26954126 -187.02849163 489.72305445 -191.47824097 491.17950439 C-199.92692453 493.94457704 -208.37803886 496.70144551 -216.84375 499.4140625 C-217.74256393 499.70423248 -218.64137787 499.99440247 -219.56742859 500.29336548 C-225.55767343 502.203125 -225.55767343 502.203125 -227.79296875 502.203125 C-225.56621799 493.50700048 -222.79884036 485.03416825 -219.8984375 476.54296875 C-219.42355279 475.14459775 -218.94897539 473.74612236 -218.47468567 472.34754944 C-217.23209486 468.68588298 -215.98569328 465.02552572 -214.73834229 461.36547852 C-213.48821049 457.69552571 -212.24123488 454.02450149 -210.99414062 450.35351562 C-210.75115801 449.63856241 -210.50817539 448.9236092 -210.25782967 448.18699074 C-209.06077683 444.66444379 -207.86489829 441.14150548 -206.6713562 437.61776733 C-206.21634236 436.27494504 -205.76127555 434.9321407 -205.30615234 433.58935547 C-205.08836058 432.94668921 -204.87056881 432.30402294 -204.64617729 431.64188194 C-203.35740121 427.84555439 -202.047597 424.05725329 -200.72119141 420.27392578 C-200.42884109 419.42947403 -200.13649078 418.58502228 -199.83528137 417.71498108 C-199.32166379 416.23267097 -198.80020163 414.75304047 -198.26860046 413.27708435 C-197.11102238 409.90788322 -196.32803087 407.5460939 -197.79296875 404.203125 C-198.76016531 402.40677936 -198.76016531 402.40677936 -199.98046875 400.65625 C-200.65082153 399.64896851 -200.65082153 399.64896851 -201.3347168 398.62133789 C-201.81593994 397.90582764 -202.29716309 397.19031738 -202.79296875 396.453125 C-227.45214549 358.96041483 -243.76019081 313.74794376 -243.99609375 268.5078125 C-244.00310806 267.60585648 -244.01012238 266.70390045 -244.01734924 265.77461243 C-244.03477607 262.87573203 -244.04120262 259.97705587 -244.04296875 257.078125 C-244.04364349 256.08825592 -244.04431824 255.09838684 -244.04501343 254.07852173 C-244.02927713 239.5686263 -243.57994425 225.48118521 -240.79296875 211.203125 C-240.55151123 209.85758545 -240.55151123 209.85758545 -240.30517578 208.48486328 C-233.17224431 169.06531022 -216.42398945 131.76568955 -191.79296875 100.203125 C-191.10847656 99.30722656 -190.42398438 98.41132812 -189.71875 97.48828125 C-184.45080312 90.72436568 -178.7032776 84.40570187 -172.79296875 78.203125 C-172.22126953 77.60274414 -171.64957031 77.00236328 -171.06054688 76.38378906 C-163.05229615 68.03503683 -154.82807993 60.38976449 -145.53027344 53.50048828 C-143.80921019 52.21525358 -142.11658075 50.8989234 -140.42578125 49.57421875 C-123.54269376 36.53588915 -104.55816431 26.14991661 -84.79296875 18.203125 C-83.93026367 17.85556152 -83.06755859 17.50799805 -82.17871094 17.14990234 C-56.14827939 6.83371635 -28.10304154 0.14744495 0 0 Z " fill="#4CAF50" transform="translate(243.79296875,-0.203125)"/>
<path d="M0 0 C0.75595459 -0.00563965 1.51190918 -0.0112793 2.29077148 -0.01708984 C8.44230758 0.06187037 14.47902526 0.29524017 19.41064453 4.34179688 C22.54103478 8.02204698 24.24369195 11.71805954 26.12109375 16.13671875 C26.50180527 17.00826096 26.88251678 17.87980316 27.27476501 18.77775574 C28.50932392 21.61699503 29.72471991 24.46389642 30.9375 27.3125 C31.34929504 28.27109924 31.76109009 29.22969849 32.18536377 30.21734619 C34.73766054 36.16014241 37.25072375 42.11818886 39.73413086 48.09008789 C40.58870382 50.13892039 41.44887015 52.18542758 42.31420898 54.22973633 C43.58742866 57.23810671 44.84431086 60.25283595 46.09765625 63.26953125 C46.48502457 64.17685501 46.87239288 65.08417877 47.27149963 66.01899719 C49.61413814 71.72563437 51.3293015 76.79206092 48.94140625 82.83203125 C45.51212037 88.2872909 41.70048209 93.00890219 37.32421875 97.734375 C34.81059063 100.44958704 32.34904053 103.19356492 29.9375 106 C29.195 106.84949219 28.4525 107.69898438 27.6875 108.57421875 C25.54660063 111.92415281 25.1035789 114.35802678 24.9375 118.3125 C31.16486932 142.96779893 60.43663751 169.26342792 80.19482422 184.00537109 C81.85560672 185.2510743 83.49268137 186.52309776 85.12890625 187.80078125 C98.78590647 198.23338488 118.86345158 211.77571149 136.515625 211.74609375 C142.51314824 210.67234362 145.95447192 207.62870428 149.6875 203 C150.11015137 202.48091064 150.53280273 201.96182129 150.96826172 201.42700195 C153.72627507 197.99044595 156.28591221 194.43859924 158.79833984 190.82006836 C169.01531189 176.11023318 169.01531189 176.11023318 176.625 174.5625 C190.07271726 175.99966062 203.60277877 184.85321953 215.53564453 190.66894531 C218.97990688 192.33298824 222.43812434 193.96389172 225.90234375 195.5859375 C227.02866211 196.11630615 228.15498047 196.6466748 229.31542969 197.19311523 C231.47058599 198.20694171 233.62866186 199.21459232 235.79003906 200.21508789 C246.37873644 205.2249719 246.37873644 205.2249719 249.9375 209.3125 C250.79240919 212.2004389 250.79305366 214.88022165 250.6875 217.875 C250.66139648 219.11443359 250.66139648 219.11443359 250.63476562 220.37890625 C249.98316502 234.56457178 245.78922146 248.82154471 235.9375 259.3125 C235.34453125 259.94929688 234.7515625 260.58609375 234.140625 261.2421875 C219.85491567 274.97844647 198.07047729 282.92084009 178.53613281 282.7253418 C151.0942227 281.84278522 123.54248099 270.79233965 98.9375 259.3125 C98.23028809 258.98572266 97.52307617 258.65894531 96.79443359 258.32226562 C79.11316028 250.07351451 63.06915033 239.59325969 47.9375 227.3125 C47.33437988 226.82652344 46.73125977 226.34054687 46.10986328 225.83984375 C37.26683617 218.64584885 29.14102414 210.71626242 21.0625 202.6875 C20.57585876 202.20621643 20.08921753 201.72493286 19.58782959 201.22906494 C13.65403763 195.34494074 8.10334645 189.2721333 2.88085938 182.74169922 C1.3157262 180.78528274 -0.27437463 178.87525315 -1.92578125 176.9921875 C-8.70694012 169.22684129 -14.71366418 161.06212629 -20.52880859 152.55371094 C-22.07719642 150.29102385 -23.64203826 148.04028576 -25.20703125 145.7890625 C-31.72220481 136.32485133 -37.31836248 126.7751774 -42.0625 116.3125 C-42.37558105 115.64428223 -42.68866211 114.97606445 -43.01123047 114.28759766 C-53.46886007 91.81413558 -56.8118268 66.84768579 -48.9609375 42.9609375 C-47.77732108 40.00571456 -46.47291179 37.16574684 -45.0625 34.3125 C-44.65515625 33.425625 -44.2478125 32.53875 -43.828125 31.625 C-38.33912379 20.51784461 -29.34528621 8.89121096 -18.0625 3.3125 C-17.42828125 2.97863281 -16.7940625 2.64476563 -16.140625 2.30078125 C-10.91106588 0.06098945 -5.60243278 0.03985876 0 0 Z " fill="#F9F9F9" transform="translate(160.0625,116.6875)"/>
</svg>
